<svg xmlns="http://www.w3.org/2000/svg" width="25" height="18" viewBox="0 0 25 18">
  <defs>
    <style>
      .cls-1 {
        fill: #149df4;
        fill-rule: evenodd;
      }
    </style>
  </defs>
  <path class="cls-1" d="M1176.95,39h-18.89a2.981,2.981,0,0,0-3.06,2.892V54.107A2.981,2.981,0,0,0,1158.06,57h18.88a2.981,2.981,0,0,0,3.06-2.892V41.9A2.982,2.982,0,0,0,1176.95,39Zm1.66,15.108a1.622,1.622,0,0,1-1.66,1.571h-18.89a1.616,1.616,0,0,1-1.66-1.571V41.9a1.616,1.616,0,0,1,1.66-1.571h18.88a1.616,1.616,0,0,1,1.66,1.571V54.107h0.01Zm-7.84-6.259,6.11-5.187a0.634,0.634,0,0,0,.05-0.935,0.733,0.733,0,0,0-.99-0.049l-8.43,7.16-1.64-1.39a0.014,0.014,0,0,1-.01-0.015,0.789,0.789,0,0,0-.12-0.093l-6.69-5.667a0.728,0.728,0,0,0-.99.054,0.635,0.635,0,0,0,.06.935l6.19,5.232-6.17,5.457a0.649,0.649,0,0,0-.03.935,0.747,0.747,0,0,0,.52.21,0.7,0.7,0,0,0,.47-0.176l6.26-5.535,1.69,1.434a0.736,0.736,0,0,0,.47.166,0.712,0.712,0,0,0,.46-0.171l1.75-1.478,6.21,5.589a0.731,0.731,0,0,0,.49.181,0.712,0.712,0,0,0,.5-0.206,0.633,0.633,0,0,0-.02-0.935Z" transform="translate(-1155 -39)"/>
</svg>
