<svg xmlns="http://www.w3.org/2000/svg" width="38.5" height="33.969" viewBox="0 0 38.5 33.969">
  <defs>
    <style>
      .cls-1 {
        fill: #f1135c;
        fill-rule: evenodd;
      }
    </style>
  </defs>
  <path id="Фигура_3_копия" data-name="Фигура 3 копия" class="cls-1" d="M527.123,64.08a8.7,8.7,0,0,1-12.335,0l-8.3-8.337,2.195-2.205L516.8,61.7a5.508,5.508,0,0,0,7.815,0,5.566,5.566,0,0,0,0-7.848l-5.669-5.693,2.324-2.334,5.848,5.872A8.786,8.786,0,0,1,527.123,64.08Zm-8.6-28.843a8.617,8.617,0,0,1,12.279,0l8.265,8.353L536.881,45.8l-8.087-8.173a5.46,5.46,0,0,0-7.78,0,5.6,5.6,0,0,0,0,7.864l5.643,5.7-2.313,2.339-5.821-5.884A8.843,8.843,0,0,1,518.523,35.237ZM503.669,50.574l0.741,8,7.223-7.254-7.964-.744m38.48-1.675-0.741-7.99-7.216,7.246,7.957,0.743" transform="translate(-503.656 -32.688)"/>
</svg>
